<svg id="logo__on-dark" xmlns="http://www.w3.org/2000/svg" viewBox="0 0 217.5 52"><defs><style>.cls-1{fill:#fff;}.cls-2{fill:#007bfc;}.cls-3{fill:#51b9ff;}</style></defs><title>logo__on-dark</title><g id="text"><path class="cls-1" d="M217.3,37.75l-5.47-9.43A8.5,8.5,0,0,0,208.5,12h-12a1.5,1.5,0,0,0-1.5,1.5v25a1.5,1.5,0,0,0,1.5,1.5h1a1.5,1.5,0,0,0,1.5-1.5V29h8.74l5.95,10.25A1.49,1.49,0,0,0,215,40h1a1.5,1.5,0,0,0,1.5-1.5A1.48,1.48,0,0,0,217.3,37.75ZM199,16h9.5a4.5,4.5,0,0,1,0,9H199Z"/><path class="cls-1" d="M186.5,12h-21a1.5,1.5,0,0,0-1.5,1.5v1a1.5,1.5,0,0,0,1.5,1.5H174V38.5a1.5,1.5,0,0,0,1.5,1.5h1a1.5,1.5,0,0,0,1.5-1.5V16h8.5a1.5,1.5,0,0,0,1.5-1.5v-1A1.5,1.5,0,0,0,186.5,12Z"/><path class="cls-1" d="M164.5,36H151V13.5a1.5,1.5,0,0,0-1.5-1.5h-1a1.5,1.5,0,0,0-1.5,1.5v25a1.5,1.5,0,0,0,1.5,1.5h16a1.5,1.5,0,0,0,1.5-1.5v-1A1.5,1.5,0,0,0,164.5,36Z"/><path class="cls-1" d="M139,13.5a1.5,1.5,0,0,0-1.5-1.5h-1a1.5,1.5,0,0,0-1.5,1.5V29a7.5,7.5,0,0,1-15,0V13.5a1.5,1.5,0,0,0-1.5-1.5h-1a1.5,1.5,0,0,0-1.5,1.5V29a11.5,11.5,0,0,0,23,0Z"/><path class="cls-1" d="M108.5,12h-1a1.5,1.5,0,0,0-1.39.94L97.5,34.59,88.84,12.94A1.5,1.5,0,0,0,87.45,12h-1A1.5,1.5,0,0,0,85,13.5a1.55,1.55,0,0,0,.11.56l10,25A1.49,1.49,0,0,0,96.5,40h2a1.49,1.49,0,0,0,1.39-.94l10-25a1.55,1.55,0,0,0,.11-.56A1.5,1.5,0,0,0,108.5,12Z"/></g><g id="sygnet"><path class="cls-2" d="M20.9,1.4A3,3,0,0,0,18.37,0H3A3,3,0,0,0,.46,4.6l3.15,5L24.06,6.4Z"/><path class="cls-3" d="M24.06,6.4A3,3,0,0,0,21.52,5H6.15A3,3,0,0,0,3.61,9.6L8,16.6l20.44-3.2Z"/><path class="cls-1" d="M8,16.6A2.91,2.91,0,0,1,7.57,15a3,3,0,0,1,3-3H25.93a3,3,0,0,1,2.54,1.4L42.22,35.21a3,3,0,0,1,0,3.2L34.54,50.6a3,3,0,0,1-5.08,0Z"/><path class="cls-1" d="M46.78,23.13a3,3,0,0,0,5.07,0l2.65-4.19,5-8a3,3,0,0,0,0-3.21l-4-6.34A3,3,0,0,0,53,0H37.63a3,3,0,0,0-2.54,4.6Z"/></g></svg>